<svg xmlns="http://www.w3.org/2000/svg" width="23" height="23" viewBox="0 0 23 23">
  <path id="Path_172" data-name="Path 172" d="M22.68,19.125l-3.243,3.217A2.346,2.346,0,0,1,17.707,23a15,15,0,0,1-7.436-2.8,28.689,28.689,0,0,1-8.68-9.467,12.254,12.254,0,0,1-1.585-5.4A2.361,2.361,0,0,1,.664,3.578L3.907.337A1.073,1.073,0,0,1,5.662.629L8.271,5.576a1.436,1.436,0,0,1-.293,1.633L6.784,8.4a.587.587,0,0,0-.122.341,10.184,10.184,0,0,0,3.072,4.533c1.226,1.125,2.544,2.649,4.255,3.01a.673.673,0,0,0,.622-.061L16,14.812a1.586,1.586,0,0,1,1.682-.244h.024l4.706,2.778a1.133,1.133,0,0,1,.268,1.779Z" fill="#2a7d33"/>
</svg>
