<svg xmlns="http://www.w3.org/2000/svg" width="21.14" height="21.14" viewBox="0 0 21.14 21.14">
  <g id="web" transform="translate(-2.88 -2.88)">
    <g id="Group_175" data-name="Group 175" transform="translate(2.88 2.88)">
      <path id="Path_175" data-name="Path 175" d="M13.45,2.88A10.57,10.57,0,1,0,24.02,13.451,10.571,10.571,0,0,0,13.45,2.88ZM5.811,14.851H7.432A10.522,10.522,0,0,0,9.92,20.366,7.789,7.789,0,0,1,5.811,14.851Zm1.621-2.8H5.811A7.79,7.79,0,0,1,9.92,6.534a10.522,10.522,0,0,0-2.488,5.516Zm4.617,6.491a7.742,7.742,0,0,1-1.779-3.689h1.779Zm0-6.491H10.27A7.744,7.744,0,0,1,12.049,8.36Zm9.04,0H19.468a10.522,10.522,0,0,0-2.487-5.515A7.791,7.791,0,0,1,21.089,12.049ZM14.851,18.54V14.851H16.63A7.748,7.748,0,0,1,14.851,18.54Zm0-6.491V8.36a7.742,7.742,0,0,1,1.779,3.689Zm2.129,8.318a10.522,10.522,0,0,0,2.488-5.516h1.621A7.789,7.789,0,0,1,16.98,20.367Z" transform="translate(-2.88 -2.88)" fill="#2a7d33"/>
    </g>
  </g>
</svg>
