<svg xmlns="http://www.w3.org/2000/svg" width="17.371" height="17.371" viewBox="0 0 17.371 17.371">
  <path id="Path_12" data-name="Path 12" d="M12.686,4c-2.359,0-2.654.01-3.581.052A6.388,6.388,0,0,0,7,4.456,4.434,4.434,0,0,0,4.456,7a6.388,6.388,0,0,0-.4,2.108C4.01,10.031,4,10.327,4,12.686s.01,2.654.052,3.581a6.388,6.388,0,0,0,.4,2.108A4.434,4.434,0,0,0,7,20.915a6.388,6.388,0,0,0,2.108.4c.927.042,1.222.052,3.581.052s2.654-.01,3.581-.052a6.388,6.388,0,0,0,2.108-.4,4.434,4.434,0,0,0,2.541-2.541,6.388,6.388,0,0,0,.4-2.108c.042-.927.052-1.222.052-3.581s-.01-2.654-.052-3.581A6.388,6.388,0,0,0,20.915,7a4.434,4.434,0,0,0-2.541-2.541,6.388,6.388,0,0,0-2.108-.4C15.34,4.01,15.045,4,12.686,4m0,1.565c2.319,0,2.594.009,3.509.05a4.824,4.824,0,0,1,1.614.3,2.875,2.875,0,0,1,1.649,1.649,4.822,4.822,0,0,1,.3,1.613c.042.916.05,1.19.05,3.51s-.009,2.594-.05,3.509a4.847,4.847,0,0,1-.3,1.614,2.875,2.875,0,0,1-1.649,1.649,4.822,4.822,0,0,1-1.613.3c-.915.042-1.19.05-3.51.05s-2.594-.009-3.509-.05a4.847,4.847,0,0,1-1.614-.3,2.875,2.875,0,0,1-1.649-1.649,4.8,4.8,0,0,1-.3-1.613c-.042-.916-.05-1.19-.05-3.51s.009-2.594.05-3.509a4.824,4.824,0,0,1,.3-1.614A2.875,2.875,0,0,1,7.563,5.914a4.8,4.8,0,0,1,1.613-.3c.916-.042,1.19-.05,3.51-.05m0,10.015a2.895,2.895,0,1,1,2.895-2.895,2.895,2.895,0,0,1-2.895,2.895m0-7.355a4.46,4.46,0,1,0,4.46,4.46,4.46,4.46,0,0,0-4.46-4.46m5.679-.176a1.042,1.042,0,1,1-1.042-1.042,1.042,1.042,0,0,1,1.042,1.042" transform="translate(-4 -4)" fill="#fff" fill-rule="evenodd"/>
</svg>
