<svg xmlns="http://www.w3.org/2000/svg" width="16.479" height="15.751" viewBox="0 0 16.479 15.751">
  <path id="Path_47355" data-name="Path 47355" d="M3.741,15.751V5.124H.208V15.751ZM1.975,3.672A1.842,1.842,0,1,0,2,0a1.841,1.841,0,1,0-.046,3.672h.023ZM5.7,15.751H9.228V9.817a2.421,2.421,0,0,1,.116-.862,1.934,1.934,0,0,1,1.812-1.292c1.278,0,1.79.975,1.79,2.4v5.685h3.532V9.658c0-3.264-1.743-4.783-4.067-4.783A3.519,3.519,0,0,0,9.2,6.665h.024V5.124H5.7c.046,1,0,10.627,0,10.627Z" transform="translate(0 0)" fill="#fff"/>
</svg>
