<svg xmlns="http://www.w3.org/2000/svg" width="20" height="20" viewBox="0 0 20 20">
  <g id="Group_14569" data-name="Group 14569" transform="translate(-1464 -2507)">
    <rect id="Rectangle_40394" data-name="Rectangle 40394" width="20" height="20" transform="translate(1464 2507)" fill="none"/>
    <path id="Path_3" data-name="Path 3" d="M17.414,5a7.038,7.038,0,0,0-6.951,7.124,7.21,7.21,0,0,0,1.381,4.263L16.3,24.3a1.334,1.334,0,0,0,.084.149l.01.017,0,0a1.228,1.228,0,0,0,1.967.079l.012.007.044-.078a1.33,1.33,0,0,0,.164-.292l4.368-7.755a7.209,7.209,0,0,0,1.411-4.3A7.038,7.038,0,0,0,17.414,5Zm-.069,10.736a3.511,3.511,0,1,1,3.425-3.51A3.468,3.468,0,0,1,17.346,15.736Z" transform="translate(1456.536 2502)" fill="#2a7d33"/>
  </g>
</svg>
