<svg xmlns="http://www.w3.org/2000/svg" width="20" height="20" viewBox="0 0 20 20">
  <g id="Group_14570" data-name="Group 14570" transform="translate(-1464 -2590)">
    <rect id="Rectangle_40395" data-name="Rectangle 40395" width="20" height="20" transform="translate(1464 2590)" fill="none"/>
    <g id="phone" transform="translate(1464 2570)">
      <path id="Path_4" data-name="Path 4" d="M20,15.8a4.689,4.689,0,0,1-.142,1,5.643,5.643,0,0,1-.3.973,3.808,3.808,0,0,1-1.733,1.506A5.508,5.508,0,0,1,15.185,20a5.637,5.637,0,0,1-.753-.05,5.836,5.836,0,0,1-.817-.178q-.447-.128-.668-.206t-.788-.291q-.568-.213-.7-.256a12.865,12.865,0,0,1-2.486-1.179,21.41,21.41,0,0,1-3.75-3.068,21.41,21.41,0,0,1-3.068-3.75A12.865,12.865,0,0,1,.98,8.537q-.043-.128-.256-.7T.433,7.053q-.078-.22-.206-.668A5.836,5.836,0,0,1,.05,5.568,5.637,5.637,0,0,1,0,4.815,5.508,5.508,0,0,1,.724,2.173,3.808,3.808,0,0,1,2.23.44,5.643,5.643,0,0,1,3.2.142,4.689,4.689,0,0,1,4.2,0a.8.8,0,0,1,.3.043q.256.085.753,1.08.156.27.426.767t.5.9q.227.4.44.76.043.057.249.355a3.967,3.967,0,0,1,.305.5.927.927,0,0,1,.1.4,1.179,1.179,0,0,1-.4.71,6.924,6.924,0,0,1-.881.781,8.555,8.555,0,0,0-.881.753,1.082,1.082,0,0,0-.4.653.96.96,0,0,0,.071.32,3.1,3.1,0,0,0,.121.291q.05.1.2.341t.163.27a14.91,14.91,0,0,0,2.472,3.338,14.91,14.91,0,0,0,3.338,2.472q.028.014.27.163t.341.2a3.1,3.1,0,0,0,.291.121.96.96,0,0,0,.32.071,1.082,1.082,0,0,0,.653-.4,8.554,8.554,0,0,0,.753-.881,6.924,6.924,0,0,1,.781-.881,1.179,1.179,0,0,1,.71-.4.927.927,0,0,1,.4.1,3.967,3.967,0,0,1,.5.305q.3.206.355.249.355.213.76.44t.9.5q.5.27.767.426.994.5,1.08.753A.8.8,0,0,1,20,15.8Z" transform="translate(0 20)" fill="#2a7d33"/>
    </g>
  </g>
</svg>
