<svg id="check-circle" xmlns="http://www.w3.org/2000/svg" width="24" height="24" viewBox="0 0 24 24">
  <g id="Group_14230" data-name="Group 14230">
    <path id="Path_86" data-name="Path 86" d="M12,22.5A10.5,10.5,0,1,1,22.5,12,10.5,10.5,0,0,1,12,22.5ZM12,24A12,12,0,1,0,0,12,12,12,0,0,0,12,24Z"/>
    <path id="Path_87" data-name="Path 87" d="M22.639,14.572a.352.352,0,0,0-.03.033L17.4,21.243,14.26,18.1a1.125,1.125,0,0,0-1.59,1.59l3.969,3.971a1.125,1.125,0,0,0,1.619-.03l5.988-7.485a1.125,1.125,0,1,0-1.607-1.575Z" transform="translate(-6.184 -7.117)"/>
  </g>
</svg>
