<svg xmlns="http://www.w3.org/2000/svg" width="18.902" height="15.751" viewBox="0 0 18.902 15.751">
  <path id="Path_47354" data-name="Path 47354" d="M18.9,5.843A5.075,5.075,0,0,1,18.2,6.855a5.2,5.2,0,0,1-1.275,1.075q.021.169.032.316a11.467,11.467,0,0,1-.811,4.394,11.568,11.568,0,0,1-4.6,5.721A12.109,12.109,0,0,1,4.33,19.677,8.281,8.281,0,0,1,0,18a8.07,8.07,0,0,0,5.774-1.665,3.978,3.978,0,0,1-3.667-2.718,2.47,2.47,0,0,0,.822.042,7.611,7.611,0,0,0,.927-.126,4.347,4.347,0,0,1-2.634-2.044A4.406,4.406,0,0,1,.78,9.552a3.7,3.7,0,0,0,1.749.527A4.519,4.519,0,0,1,.811,7.287a5.17,5.17,0,0,1,.474-2.518,13.255,13.255,0,0,0,4.5,3.372,9.313,9.313,0,0,0,3.53.738,4.717,4.717,0,0,1,.474-2.992,4.079,4.079,0,0,1,2.434-1.77,3.593,3.593,0,0,1,3.6,1.117A6.415,6.415,0,0,0,18.333,4.3a3.8,3.8,0,0,1-1.728,2.234A10.927,10.927,0,0,0,18.9,5.843Z" transform="translate(0 -4)" fill="#fff"/>
</svg>
