<svg xmlns="http://www.w3.org/2000/svg" width="16.208" height="16.281" viewBox="0 0 16.208 16.281">
  <path id="Path_47352" data-name="Path 47352" d="M13.84,2.367A7.992,7.992,0,0,0,8.135,0,8.074,8.074,0,0,0,1.141,12.1L0,16.281,4.278,15.16a8.072,8.072,0,0,0,3.857.982h0a8.065,8.065,0,0,0,5.7-13.775ZM8.135,14.776A6.689,6.689,0,0,1,4.72,13.84l-.244-.147-2.538.665.678-2.476-.159-.255a6.7,6.7,0,1,1,5.678,3.148Zm3.679-5.021c-.2-.1-1.191-.588-1.377-.657s-.321-.1-.453.1-.522.657-.638.789-.236.151-.438.051a5.5,5.5,0,0,1-1.62-1,6.152,6.152,0,0,1-1.122-1.4c-.116-.2-.011-.309.09-.41s.2-.236.3-.352a1.287,1.287,0,0,0,.2-.336.375.375,0,0,0-.015-.353c-.051-.1-.453-1.095-.623-1.5s-.329-.341-.453-.346S5.416,4.34,5.28,4.34a.742.742,0,0,0-.538.251,2.259,2.259,0,0,0-.7,1.683,3.906,3.906,0,0,0,.824,2.085A8.963,8.963,0,0,0,8.305,11.4a11.215,11.215,0,0,0,1.149.425,2.769,2.769,0,0,0,1.268.081,2.088,2.088,0,0,0,1.362-.96,1.688,1.688,0,0,0,.116-.96c-.05-.085-.185-.135-.387-.236Z" transform="translate(0 0)" fill="#fff"/>
</svg>
