<svg xmlns="http://www.w3.org/2000/svg" width="19.102" height="13.371" viewBox="0 0 19.102 13.371">
  <path id="Path_13" data-name="Path 13" d="M6.865,11.91H20.236a.955.955,0,0,1,.955.955v7.641a.955.955,0,0,1-.955.955H6.865a.955.955,0,0,1-.955-.955V12.865A.955.955,0,0,1,6.865,11.91ZM4,12.865A2.865,2.865,0,0,1,6.865,10H20.236A2.865,2.865,0,0,1,23.1,12.865v7.641a2.865,2.865,0,0,1-2.865,2.865H6.865A2.865,2.865,0,0,1,4,20.506Zm7.641.955,3.82,2.865-3.82,2.865Z" transform="translate(-4 -10)" fill="#fff" fill-rule="evenodd"/>
</svg>
